# xmcd
#
# Track frame offsets:
#  150
#  13385
#  30457
#  47760
#  63765
#  81615
#  98200
#  111567
#  135460
#  153682
#  173052
#  184235
#  204547
#  227015
#
# Disc length: 3353 seconds
#
# Revision: 0
# Processed by: cddbd v1.4b41PL2 Copyright (c) Steve Scherf et al.
# Submitted via: AltoMP3 Maker 3.0
#
DISCID=c20d170e
DTITLE=Fabiana Cantilo - Sol en cinco
DYEAR=1900
DGENRE=
TTITLE0=Na Na Na Na
TTITLE1=La arena del amor
TTITLE2=Tontos pies
TTITLE3=Guarden mi secreto
TTITLE4=Bares rio arriba
TTITLE5=Baby love
TTITLE6=(Ya fue) Nos vemos luego
TTITLE7=Te amare sin flores
TTITLE8=Querida Toto
TTITLE9=Enloquecerte
TTITLE10=Coma
TTITLE11=Loca Tuca de Dios
TTITLE12=Nada lo compra (Money can´t buy it)
TTITLE13=Nada es para siempre
EXTD=
EXTT0=
EXTT1=
EXTT2=
EXTT3=
EXTT4=
EXTT5=
EXTT6=
EXTT7=
EXTT8=
EXTT9=
EXTT10=
EXTT11=
EXTT12=
EXTT13=
PLAYORDER=
